<svg width="256" height="256" viewBox="0 0 256 256" fill="none" xmlns="http://www.w3.org/2000/svg">
  <circle cx="128" cy="128" r="128" fill="#DBE9FF" />
  <g fill="#1F6FFF">
    <rect x="82" y="52" width="16" height="88" rx="8" />
    <rect x="106" y="52" width="16" height="88" rx="8" />
    <rect x="130" y="52" width="16" height="88" rx="8" />
    <rect x="106" y="128" width="16" height="76" rx="8" />
    <path d="M168 52c-13.255 0-24 10.745-24 24v38c0 13.255 10.745 24 24 24h10v66c0 4.418 3.582 8 8 8s8-3.582 8-8V68c0-8.837-7.163-16-16-16h-10z" />
  </g>
  <rect x="166" y="84" width="20" height="52" rx="10" fill="#DBE9FF" />
</svg>
